<svg width="800" height="700" viewBox="0 0 800 700" fill="none" xmlns="http://www.w3.org/2000/svg">
<g filter="url(#filter0_i_1570_298)">
<path fill-rule="evenodd" clip-rule="evenodd" d="M492.554 272.754C492.554 274.577 492.528 276.394 492.474 278.204C505.213 274.654 518.652 272.754 532.54 272.754C587.139 272.754 634.796 302.109 660.214 345.71C672.113 340.862 685.161 338.186 698.846 338.186C754.557 338.186 799.719 382.535 799.719 437.242C799.719 491.949 754.557 536.298 698.846 536.298C676.844 536.298 656.488 529.382 639.909 517.642C613.052 545.906 574.884 563.561 532.54 563.561C500.424 563.561 470.709 553.404 446.51 536.165C422.668 579.546 376.126 609 322.614 609C266.87 609 218.689 577.037 195.854 530.665C176.366 542.315 153.5 549.021 129.046 549.021C57.7757 549.021 0 492.059 0 421.793C0 351.527 57.7757 294.565 129.046 294.565C129.478 294.565 129.91 294.567 130.342 294.571C129.486 287.418 129.046 280.138 129.046 272.754C129.046 172.374 210.42 91 310.8 91C411.18 91 492.554 172.374 492.554 272.754Z" fill="#F1F9FE"/>
</g>
<g filter="url(#filter1_if_1570_298)">
<ellipse cx="322.614" cy="469.958" rx="140.86" ry="139.042" fill="#F1F9FE" fill-opacity="0.05"/>
</g>
<g filter="url(#filter2_if_1570_298)">
<ellipse cx="532.54" cy="418.158" rx="147.221" ry="145.404" fill="#F1F9FE" fill-opacity="0.05"/>
</g>
<g filter="url(#filter3_if_1570_298)">
<circle cx="310.8" cy="272.754" r="181.754" fill="#F1F9FE" fill-opacity="0.1"/>
</g>
<defs>
<filter id="filter0_i_1570_298" x="0" y="72.8246" width="836.07" height="536.175" filterUnits="userSpaceOnUse" color-interpolation-filters="sRGB">
<feFlood flood-opacity="0" result="BackgroundImageFix"/>
<feBlend mode="normal" in="SourceGraphic" in2="BackgroundImageFix" result="shape"/>
<feColorMatrix in="SourceAlpha" type="matrix" values="0 0 0 0 0 0 0 0 0 0 0 0 0 0 0 0 0 0 127 0" result="hardAlpha"/>
<feOffset dx="36.3509" dy="-18.1754"/>
<feGaussianBlur stdDeviation="36.3509"/>
<feComposite in2="hardAlpha" operator="arithmetic" k2="-1" k3="1"/>
<feColorMatrix type="matrix" values="0 0 0 0 0.568627 0 0 0 0 0.788235 0 0 0 0 1 0 0 0 0.8 0"/>
<feBlend mode="normal" in2="shape" result="effect1_innerShadow_1570_298"/>
</filter>
<filter id="filter1_if_1570_298" x="90.8772" y="240.039" width="463.474" height="459.839" filterUnits="userSpaceOnUse" color-interpolation-filters="sRGB">
<feFlood flood-opacity="0" result="BackgroundImageFix"/>
<feBlend mode="normal" in="SourceGraphic" in2="BackgroundImageFix" result="shape"/>
<feColorMatrix in="SourceAlpha" type="matrix" values="0 0 0 0 0 0 0 0 0 0 0 0 0 0 0 0 0 0 127 0" result="hardAlpha"/>
<feOffset dx="54.5263" dy="-45.4386"/>
<feGaussianBlur stdDeviation="54.5263"/>
<feComposite in2="hardAlpha" operator="arithmetic" k2="-1" k3="1"/>
<feColorMatrix type="matrix" values="0 0 0 0 0.568627 0 0 0 0 0.788235 0 0 0 0 1 0 0 0 1 0"/>
<feBlend mode="normal" in2="shape" result="effect1_innerShadow_1570_298"/>
<feGaussianBlur stdDeviation="45.4386" result="effect2_foregroundBlur_1570_298"/>
</filter>
<filter id="filter2_if_1570_298" x="294.442" y="181.877" width="476.197" height="472.561" filterUnits="userSpaceOnUse" color-interpolation-filters="sRGB">
<feFlood flood-opacity="0" result="BackgroundImageFix"/>
<feBlend mode="normal" in="SourceGraphic" in2="BackgroundImageFix" result="shape"/>
<feColorMatrix in="SourceAlpha" type="matrix" values="0 0 0 0 0 0 0 0 0 0 0 0 0 0 0 0 0 0 127 0" result="hardAlpha"/>
<feOffset dx="54.5263" dy="-45.4386"/>
<feGaussianBlur stdDeviation="54.5263"/>
<feComposite in2="hardAlpha" operator="arithmetic" k2="-1" k3="1"/>
<feColorMatrix type="matrix" values="0 0 0 0 0.568627 0 0 0 0 0.788235 0 0 0 0 1 0 0 0 1 0"/>
<feBlend mode="normal" in2="shape" result="effect1_innerShadow_1570_298"/>
<feGaussianBlur stdDeviation="45.4386" result="effect2_foregroundBlur_1570_298"/>
</filter>
<filter id="filter3_if_1570_298" x="38.1685" y="0.12281" width="545.263" height="545.263" filterUnits="userSpaceOnUse" color-interpolation-filters="sRGB">
<feFlood flood-opacity="0" result="BackgroundImageFix"/>
<feBlend mode="normal" in="SourceGraphic" in2="BackgroundImageFix" result="shape"/>
<feColorMatrix in="SourceAlpha" type="matrix" values="0 0 0 0 0 0 0 0 0 0 0 0 0 0 0 0 0 0 127 0" result="hardAlpha"/>
<feOffset dx="54.5263" dy="-45.4386"/>
<feGaussianBlur stdDeviation="54.5263"/>
<feComposite in2="hardAlpha" operator="arithmetic" k2="-1" k3="1"/>
<feColorMatrix type="matrix" values="0 0 0 0 0.568627 0 0 0 0 0.788235 0 0 0 0 1 0 0 0 1 0"/>
<feBlend mode="normal" in2="shape" result="effect1_innerShadow_1570_298"/>
<feGaussianBlur stdDeviation="45.4386" result="effect2_foregroundBlur_1570_298"/>
</filter>
</defs>
</svg>
