<svg width="40" height="40" viewBox="0 0 40 40" fill="none" xmlns="http://www.w3.org/2000/svg">
<g id="computer-desktop-favorite-star--computer-desktop-device-display-like-favorite-star">
<g id="Service Item Icon">
<path id="Vector" d="M32.857 5.71426H37.1428C37.5216 5.71426 37.885 5.86477 38.1529 6.13268C38.4208 6.40059 38.5713 6.76395 38.5713 7.14284V30C38.5713 30.3789 38.4208 30.7422 38.1529 31.0101C37.885 31.278 37.5216 31.4285 37.1428 31.4285H2.85704C2.47816 31.4285 2.11479 31.278 1.84689 31.0101C1.57898 30.7422 1.42847 30.3789 1.42847 30V7.14284C1.42847 6.76395 1.57898 6.40059 1.84689 6.13268C2.11479 5.86477 2.47816 5.71426 2.85704 5.71426H7.14275" stroke="#4995FF" stroke-width="2.85714" stroke-linecap="round" stroke-linejoin="round"/>
<path id="Vector_2" d="M17.1428 31.4286L14.2856 38.5714" stroke="#4995FF" stroke-width="2.85714" stroke-linecap="round" stroke-linejoin="round"/>
<path id="Vector_3" d="M22.8572 31.4286L25.7143 38.5714" stroke="#4995FF" stroke-width="2.85714" stroke-linecap="round" stroke-linejoin="round"/>
<path id="Vector_4" d="M11.4285 38.5714H28.5713" stroke="#4995FF" stroke-width="2.85714" stroke-linecap="round" stroke-linejoin="round"/>
<path id="Vector_5" d="M18.4286 6.74283C18.5516 6.42605 18.7674 6.15383 19.0479 5.96189C19.3283 5.76994 19.6602 5.66724 20 5.66724C20.3398 5.66724 20.6717 5.76994 20.9521 5.96189C21.2326 6.15383 21.4484 6.42605 21.5714 6.74283L23.4 11.4285H28.2857C28.6331 11.4337 28.971 11.5425 29.2561 11.741C29.5412 11.9396 29.7605 12.2188 29.8857 12.5428C29.9822 12.8468 29.9905 13.172 29.9095 13.4805C29.8286 13.789 29.6618 14.0682 29.4286 14.2857L25.1143 18.1143L26.9429 21.7714C27.1084 22.0925 27.1645 22.4588 27.1026 22.8147C27.0407 23.1706 26.8642 23.4965 26.6 23.7428C26.3422 24.0001 26.0081 24.167 25.6476 24.2185C25.287 24.27 24.9195 24.2034 24.6 24.0285L20 21.5143L15.4 24.0285C15.0805 24.2034 14.713 24.27 14.3525 24.2185C13.9919 24.167 13.6578 24.0001 13.4 23.7428C13.1358 23.4965 12.9593 23.1706 12.8974 22.8147C12.8355 22.4588 12.8916 22.0925 13.0571 21.7714L14.8857 18.1143L10.5714 14.2857C10.3161 14.0589 10.1356 13.7599 10.054 13.4282C9.97235 13.0966 9.99338 12.748 10.1143 12.4285C10.2569 12.1259 10.4836 11.8706 10.7673 11.6933C11.051 11.516 11.3797 11.4241 11.7143 11.4285H16.6L18.4286 6.74283Z" stroke="#4995FF" stroke-width="2.85714" stroke-linecap="round" stroke-linejoin="round"/>
</g>
</g>
</svg>
