<svg width="40" height="40" viewBox="0 0 40 40" fill="none" xmlns="http://www.w3.org/2000/svg">
<g id="computer-database-server-1--server-network-internet">
<g id="Service Item Icon">
<path id="Vector" d="M35.7142 2.85712H4.28561C2.70765 2.85712 1.42847 4.1363 1.42847 5.71426V17.1428C1.42847 18.7208 2.70765 20 4.28561 20H35.7142C37.2921 20 38.5713 18.7208 38.5713 17.1428V5.71426C38.5713 4.1363 37.2921 2.85712 35.7142 2.85712Z" stroke="#4995FF" stroke-width="2.85714" stroke-linecap="round" stroke-linejoin="round"/>
<path id="Vector_2" d="M9.99986 12.8571C10.7888 12.8571 11.4284 12.2175 11.4284 11.4285C11.4284 10.6395 10.7888 9.99994 9.99986 9.99994C9.21088 9.99994 8.57129 10.6395 8.57129 11.4285C8.57129 12.2175 9.21088 12.8571 9.99986 12.8571Z" stroke="#4995FF" stroke-width="2.85714" stroke-linecap="round" stroke-linejoin="round"/>
<path id="Vector_3" d="M21.4285 11.4285H31.4285" stroke="#4995FF" stroke-width="2.85714" stroke-linecap="round" stroke-linejoin="round"/>
<path id="Vector_4" d="M4.28561 19.9999C3.52785 19.9999 2.80112 20.301 2.2653 20.8368C1.72949 21.3726 1.42847 22.0993 1.42847 22.8571V34.2857C1.42847 35.0434 1.72949 35.7701 2.2653 36.306C2.80112 36.8418 3.52785 37.1428 4.28561 37.1428H35.7142C36.4719 37.1428 37.1987 36.8418 37.7345 36.306C38.2703 35.7701 38.5713 35.0434 38.5713 34.2857V22.8571C38.5713 22.0993 38.2703 21.3726 37.7345 20.8368C37.1987 20.301 36.4719 19.9999 35.7142 19.9999" stroke="#4995FF" stroke-width="2.85714" stroke-linecap="round" stroke-linejoin="round"/>
<path id="Vector_5" d="M9.99986 30C10.7888 30 11.4284 29.3604 11.4284 28.5714C11.4284 27.7824 10.7888 27.1428 9.99986 27.1428C9.21088 27.1428 8.57129 27.7824 8.57129 28.5714C8.57129 29.3604 9.21088 30 9.99986 30Z" stroke="#4995FF" stroke-width="2.85714" stroke-linecap="round" stroke-linejoin="round"/>
<path id="Vector_6" d="M21.4285 28.5714H31.4285" stroke="#4995FF" stroke-width="2.85714" stroke-linecap="round" stroke-linejoin="round"/>
</g>
</g>
</svg>
