<svg width="40" height="40" viewBox="0 0 40 40" fill="none" xmlns="http://www.w3.org/2000/svg">
<g id="interface-share-user--human-person-share-signal-transmit-user" clip-path="url(#clip0_1589_1644)">
<g id="Service Item Icon">
<path id="Vector" d="M20.0001 25.7143C23.5505 25.7143 26.4287 22.8362 26.4287 19.2857C26.4287 15.7353 23.5505 12.8572 20.0001 12.8572C16.4497 12.8572 13.5715 15.7353 13.5715 19.2857C13.5715 22.8362 16.4497 25.7143 20.0001 25.7143Z" stroke="#4995FF" stroke-width="2.85714" stroke-linecap="round" stroke-linejoin="round"/>
<path id="Vector_2" d="M31.4287 38.5714C30.347 36.4728 28.7084 34.7124 26.6925 33.4835C24.6765 32.2545 22.3611 31.6044 20.0001 31.6044C17.6391 31.6044 15.3237 32.2545 13.3077 33.4835C11.2918 34.7124 9.65316 36.4728 8.57153 38.5714" stroke="#4995FF" stroke-width="2.85714" stroke-linecap="round" stroke-linejoin="round"/>
<path id="Vector_3" d="M34.2857 30.1713C36.3132 27.5267 37.5603 24.3676 37.8859 21.0512C38.2115 17.7348 37.6027 14.3934 36.1282 11.405C34.6537 8.41664 32.3725 5.90044 29.5425 4.14102C26.7125 2.3816 23.4466 1.44916 20.1142 1.44916C16.7819 1.44916 13.516 2.3816 10.686 4.14102C7.85597 5.90044 5.57472 8.41664 4.10025 11.405C2.62578 14.3934 2.01693 17.7348 2.34254 21.0512C2.66816 24.3676 3.91527 27.5267 5.9428 30.1713" stroke="#4995FF" stroke-width="2.85714" stroke-linecap="round" stroke-linejoin="round"/>
</g>
</g>
<defs>
<clipPath id="clip0_1589_1644">
<rect width="40" height="40" fill="white"/>
</clipPath>
</defs>
</svg>
